<svg width="48" height="48" viewBox="0 0 48 48" fill="none" xmlns="http://www.w3.org/2000/svg">
<path d="M24.8519 47C24.8519 44.4444 21.4444 44.0884 21.4444 40.1852C21.4444 33.8406 28.2593 35.0741 28.2593 35.0741C28.2593 35.0741 31.5951 31.6667 35.0741 34.2222C35.0741 34.2222 36.4933 31.7365 38.4815 31.6667C38.4815 31.6667 35.9276 27.7618 38.4815 24.9933C38.4815 24.9933 35.6789 19.9179 39.3333 17.8241C39.3333 17.8241 35.8561 15.197 38.4815 10.3704C38.4815 10.3704 33.8679 12.8561 31.5968 11.0808C31.5968 11.0808 27.4773 13.2104 24.8519 10.3704C24.8519 10.3704 21.6131 12.8407 18.463 9.87289C18.463 9.87289 14.4882 11.3636 12.0741 9.51852C12.0741 9.51852 11.6584 12.6176 9.59007 13.4234C9.59007 13.4234 12.2172 17.6827 9.59007 19.8123C9.59007 19.8123 12.7113 22.7938 10.3704 27.4074C10.3704 27.4074 13.7778 29.6086 13.7778 32.5185C13.7778 35.4284 11.2921 37.6296 7.81481 37.6296C4.33756 37.6296 1 34.4352 1 30.8148C1 27.9764 2.84681 25.2778 2.84681 25.2778C2.84681 25.2778 1 23.2197 1 20.2382C1 17.2567 2.63385 17.2567 2.63385 17.2567C2.63385 17.2567 -0.0648148 12.287 3.55556 9.51852C3.55556 9.51852 1.35607 1 8.52526 1C11.0093 1 12.9259 2.7037 12.9259 2.7037C12.9259 2.7037 17.1153 0.148148 19.7407 3.55556C19.7407 3.55556 24.4276 1.07156 26.9116 3.55556C26.9116 3.55556 30.4604 0.0782962 35.0042 2.77526C35.0042 2.77526 38.6944 -0.13637 41.8889 3.55556C41.8889 3.55556 47 3.55556 47 6.96296C47 11.7197 45.7222 12.0741 45.7222 12.0741C45.7222 12.0741 47 14.2753 47 16.5463C47 18.8173 45.0833 21.3729 45.0833 21.3729C45.0833 21.3729 47.213 24.7803 44.9419 27.9747C44.9419 27.9747 47 30.6734 47 33.5118C47 36.3501 45.0833 41.819 40.0438 41.037C40.0438 41.037 37.3468 46.0766 33.0876 42.7407C33.0876 42.7407 31.6667 43.2723 31.6667 47" stroke="#E43365" stroke-width="2" stroke-linecap="round" stroke-linejoin="round"/>
<path d="M7.59668 37.813C10.1866 39.7554 6.73337 42.8495 11.0499 43.8562" stroke="#E43365" stroke-width="2" stroke-linecap="round" stroke-linejoin="round"/>
<path d="M15 14.1024C15 14.1024 16.9442 12.1583 18.0216 10" stroke="#E43365" stroke-width="2" stroke-linecap="round" stroke-linejoin="round"/>
<path d="M11 17.5C11 17.5 12.5 19 14.0675 19C18.7315 19 21.9999 11.5 21.9999 11.5" stroke="#E43365" stroke-width="2" stroke-linecap="round" stroke-linejoin="round"/>
<path d="M25 15.8555C25 15.8555 28.2823 13.5401 29.1957 12" stroke="#E43365" stroke-width="2" stroke-linecap="round" stroke-linejoin="round"/>
<path d="M18.71 16.6949C18.71 16.6949 18.71 21.4103 23.137 21.4103C27.0219 21.4103 31.7701 16.2305 31.7701 16.2305" stroke="#E43365" stroke-width="2" stroke-linecap="round" stroke-linejoin="round"/>
<path d="M26.5398 20.3828C26.5398 20.3828 29.2368 23.7737 36.9997 20.5" stroke="#E43365" stroke-width="2" stroke-linecap="round" stroke-linejoin="round"/>
<path d="M31.6328 29.3165C31.6328 29.3165 34.726 29.6496 37 27.5" stroke="#E43365" stroke-width="2" stroke-linecap="round" stroke-linejoin="round"/>
<path d="M12 24C12 24 15.6397 26.2498 22.4012 25.6765" stroke="#E43365" stroke-width="2" stroke-linecap="round" stroke-linejoin="round"/>
<path d="M29.3715 21.999C29.2524 23.641 29.4875 32.2229 13 29.5" stroke="#E43365" stroke-width="2" stroke-linecap="round" stroke-linejoin="round"/>
<path d="M13.5 34.5C13.5 34.5 16.4068 37.536 22.5 36.5" stroke="#E43365" stroke-width="2" stroke-linecap="round" stroke-linejoin="round"/>
<path d="M25.5 29C25.5 29 30.3458 29.498 28.5 34.5" stroke="#E43365" stroke-width="2" stroke-linecap="round" stroke-linejoin="round"/>
<path d="M8.40194 47.0378L8.35644 45.4385L6.75708 45.484L6.80259 47.0833L8.40194 47.0378Z" fill="#E43365"/>
<path d="M5.13632 44.7292L5.0908 43.1299L3.49146 43.1754L3.53695 44.7747L5.13632 44.7292Z" fill="#E43365"/>
<path d="M2.64509 41.5994L2.59959 40L1.00024 40.0455L1.04574 41.6449L2.64509 41.5994Z" fill="#E43365"/>
</svg>
