<svg width="48" height="48" viewBox="0 0 48 48" fill="none" xmlns="http://www.w3.org/2000/svg">
<path d="M33 22.4008H39.9996C40.8836 22.4008 41.5996 21.6848 41.5996 20.8008V8.33198C41.5996 7.70718 41.0932 7.20078 40.4684 7.20078C40.1684 7.20078 39.8804 7.31998 39.6684 7.53198L36.8356 10.3648C33.6244 6.94238 29.0636 4.80078 23.9996 4.80078C15.9164 4.80078 7.564 11.5744 5.5 19C8.66 15.9808 15.325 12.1143 20 11.5C25.2852 10.8056 28 11 31.5 14.5L28 18" stroke="#E43365" stroke-width="2" stroke-miterlimit="10"/>
<path d="M14 25.5996H8.00039C7.11639 25.5996 6.40039 26.3156 6.40039 27.1996V39.6684C6.40039 40.2932 6.90679 40.7996 7.53159 40.7996C7.83159 40.7996 8.11959 40.6804 8.33159 40.4684L11.1644 37.6356C14.3756 41.058 18.9364 43.1996 24.0004 43.1996C32.0836 43.1996 39.1508 38.1204 41.2148 30.6948C38.0548 33.714 33.5 37.6356 25.5 37.6356C21.4528 37.6356 18.4728 35.2968 15.5 33L19 29.5" stroke="#E43365" stroke-width="2" stroke-miterlimit="10"/>
<path d="M6.40078 10.4004H4.80078V12.0004H6.40078V10.4004Z" fill="#E43365"/>
<path d="M8.79922 7.19922H7.19922V8.79922H8.79922V7.19922Z" fill="#E43365"/>
<path d="M12.0004 4.80078H10.4004V6.40078H12.0004V4.80078Z" fill="#E43365"/>
<path d="M43.1996 36H41.5996V37.6H43.1996V36Z" fill="#E43365"/>
<path d="M40.7992 39.1992H39.1992V40.7992H40.7992V39.1992Z" fill="#E43365"/>
<path d="M37.6 41.5996H36V43.1996H37.6V41.5996Z" fill="#E43365"/>
<path d="M26.4605 27.8638L21.7728 33.8592C21.7059 33.9453 21.603 34 21.4878 34C21.2859 34 21.122 33.8309 21.122 33.6226C21.122 33.594 21.1249 33.566 21.1311 33.5392L22.5766 26.9136C22.5824 26.8868 22.5854 26.8589 22.5854 26.8302C22.5854 26.6219 22.4215 26.4528 22.2195 26.4528H16.3659C16.1639 26.4528 16 26.2838 16 26.0755C16 25.9857 16.0304 25.9034 16.0809 25.8389L25.2272 14.1408C25.2941 14.0547 25.397 14 25.5122 14C25.7141 14 25.878 14.1691 25.878 14.3774C25.878 14.406 25.8751 14.434 25.8689 14.4608L24.4234 21.0864C24.4176 21.1132 24.4146 21.1411 24.4146 21.1698C24.4146 21.3781 24.5785 21.5472 24.7805 21.5472H30.6341C30.8361 21.5472 31 21.7162 31 21.9245C31 22.0143 30.9696 22.0966 30.9191 22.1611L26.4605 27.8638Z" stroke="#E43365" stroke-width="2" stroke-miterlimit="10"/>
</svg>
