<svg width="49" height="48" viewBox="0 0 49 48" fill="none" xmlns="http://www.w3.org/2000/svg">
<g clip-path="url(#clip0_1_460)">
<path d="M41.3169 29.9844L30.3489 39.2004C30.3489 39.2004 27.9657 37.1676 25.0273 34.6692" stroke="#E43365" stroke-width="2" stroke-miterlimit="10"/>
<path d="M45.0049 26.5C44.7201 26.8992 44.5441 27.1552 43.2793 28.2824" stroke="#E43365" stroke-width="2" stroke-miterlimit="10"/>
<path d="M19.3223 11.3244C20.7303 10.6972 22.2319 10.398 23.9487 10.4004C26.4255 10.4036 28.6279 11.2652 30.3487 12.8004C32.0711 11.2588 34.2671 10.4012 36.7487 10.4004C42.3207 10.398 47.1487 14.3748 47.1487 20.0004C47.1487 21.5796 46.7703 23.1916 46.1055 24.6292" stroke="#E43365" stroke-width="2" stroke-miterlimit="10"/>
<path d="M19.9492 25.6008C21.2748 25.6008 22.3492 24.5264 22.3492 23.2008C22.3492 21.8752 21.2748 20.8008 19.9492 20.8008H11.9492" stroke="#E43365" stroke-width="2" stroke-miterlimit="10"/>
<path d="M8.75 35.2004H7.15C5.8244 35.2004 4.75 34.126 4.75 32.8004C4.75 31.4748 5.8244 30.4004 7.15 30.4004" stroke="#E43365" stroke-width="2" stroke-miterlimit="10"/>
<path d="M11.9496 35.2012H18.3496C19.6752 35.2012 20.7496 36.2756 20.7496 37.6012C20.7496 38.9268 19.6752 40.0012 18.3496 40.0012H8.74961C7.42401 40.0012 6.34961 38.9268 6.34961 37.6012C6.34961 36.2756 7.42401 35.2012 8.74961 35.2012" stroke="#E43365" stroke-width="2" stroke-miterlimit="10"/>
<path d="M11.1484 30.3996H20.7484C22.074 30.3996 23.1484 29.3252 23.1484 27.9996C23.1484 26.674 22.074 25.5996 20.7484 25.5996H11.1484" stroke="#E43365" stroke-width="2" stroke-miterlimit="10"/>
<path d="M7.14922 25.5996H6.34922C5.02362 25.5996 3.94922 26.674 3.94922 27.9996C3.94922 29.3252 5.02362 30.3996 6.34922 30.3996H7.14922" stroke="#E43365" stroke-width="2" stroke-miterlimit="10"/>
<path d="M18.3496 35.2004H19.9496C21.2752 35.2004 22.3496 34.126 22.3496 32.8004C22.3496 31.4748 21.2752 30.4004 19.9496 30.4004" stroke="#E43365" stroke-width="2" stroke-miterlimit="10"/>
<path d="M25.5488 23.2008L27.9488 16.8008L32.7488 29.6008L35.1488 23.2008H42.3488" stroke="#E43365" stroke-width="2" stroke-miterlimit="10"/>
<path d="M2.35 39.1992H0.75V40.7992H2.35V39.1992Z" fill="#E43365"/>
<path d="M7.15078 44H5.55078V45.6H7.15078V44Z" fill="#E43365"/>
<path d="M3.94961 42.4004H2.34961V44.0004H3.94961V42.4004Z" fill="#E43365"/>
<path d="M10.35 42.4004H8.75V44.0004H10.35V42.4004Z" fill="#E43365"/>
<path d="M3.94961 36H2.34961V37.6H3.94961V36Z" fill="#E43365"/>
<path d="M39.9496 6.40039H38.3496V8.00039H39.9496V6.40039Z" fill="#E43365"/>
<path d="M47.9496 6.40039H46.3496V8.00039H47.9496V6.40039Z" fill="#E43365"/>
<path d="M40.7504 3.19922H39.1504V4.79922H40.7504V3.19922Z" fill="#E43365"/>
<path d="M47.1508 3.19922H45.5508V4.79922H47.1508V3.19922Z" fill="#E43365"/>
<path d="M47.1508 9.59961H45.5508V11.1996H47.1508V9.59961Z" fill="#E43365"/>
<path d="M43.9496 2.40039H42.3496V4.00039H43.9496V2.40039Z" fill="#E43365"/>
<path d="M41.5492 44.8008H39.9492V46.4008H41.5492V44.8008Z" fill="#E43365"/>
<path d="M37.5492 40.8008H35.9492V42.4008H37.5492V40.8008Z" fill="#E43365"/>
<path d="M45.5492 40.8008H43.9492V42.4008H45.5492V40.8008Z" fill="#E43365"/>
<path d="M38.35 37.5996H36.75V39.1996H38.35V37.5996Z" fill="#E43365"/>
<path d="M44.7504 37.5996H43.1504V39.1996H44.7504V37.5996Z" fill="#E43365"/>
<path d="M38.35 44H36.75V45.6H38.35V44Z" fill="#E43365"/>
<path d="M44.7504 44H43.1504V45.6H44.7504V44Z" fill="#E43365"/>
<path d="M41.5492 36.8008H39.9492V38.4008H41.5492V36.8008Z" fill="#E43365"/>
<path d="M16.75 18.1332C15.95 15.1996 15.95 8.39961 15.95 8.39961C15.95 6.85321 14.6964 5.59961 13.15 5.59961C11.6036 5.59961 10.35 6.85321 10.35 8.39961C10.35 17.5996 8.75 19.1996 5.8716 21.1676C5.1972 21.5924 4.75 22.3436 4.75 23.1996C4.75 24.5252 5.8244 25.5996 7.15 25.5996" stroke="#E43365" stroke-width="2" stroke-miterlimit="10"/>
<path d="M7.25839 7.26172C7.18719 7.63052 7.15039 8.01132 7.15039 8.40012C7.15039 8.50892 7.15359 8.61692 7.15919 8.72492" stroke="#E43365" stroke-width="2" stroke-miterlimit="10"/>
<path d="M13.4718 2.40919C13.3654 2.40359 13.2574 2.40039 13.1494 2.40039C10.8726 2.40039 8.8918 3.66919 7.875 5.53799" stroke="#E43365" stroke-width="2" stroke-miterlimit="10"/>
</g>
<defs>
<clipPath id="clip0_1_460">
<rect width="48" height="48" fill="white" transform="translate(0.75)"/>
</clipPath>
</defs>
</svg>
