<svg width="38" height="47" viewBox="0 0 38 47" fill="none" xmlns="http://www.w3.org/2000/svg">
<path fill-rule="evenodd" clip-rule="evenodd" d="M20.7018 0.688076C20.2667 0.247501 19.6766 0 19.0614 0C18.4462 0 17.8561 0.247501 17.421 0.688076C15.5417 2.59165 12.8433 3.7197 10.0359 4.30723C7.24707 4.89005 4.59047 4.88535 3.0754 4.71379C2.75114 4.67744 2.42296 4.71077 2.11228 4.81159C1.8016 4.91241 1.5154 5.07846 1.27237 5.2989C1.02933 5.51934 0.834929 5.78922 0.701842 6.09091C0.568755 6.39261 0.499978 6.71934 0.5 7.04979V28.2007C0.5 31.2558 1.81786 33.956 3.52551 36.1792C5.2378 38.4071 7.46285 40.3225 9.59277 41.8641C12.2614 43.7753 15.1051 45.4224 18.0846 46.7829L18.1264 46.8017L18.1403 46.8087H18.1473C18.436 46.9345 18.7469 46.9996 19.0612 47C19.3754 47.0004 19.6865 46.9361 19.9756 46.8111L19.0614 44.6513C19.9756 46.8134 19.9779 46.8111 19.9779 46.8111L19.9825 46.8087L19.9941 46.8017L20.0405 46.7829L20.1913 46.7147C21.0297 46.3278 21.8575 45.9179 22.6739 45.4856C24.7039 44.4129 26.6604 43.203 28.53 41.8641C30.66 40.3225 32.885 38.4095 34.5973 36.1792C36.3049 33.9584 37.6228 31.2558 37.6228 28.2007V7.04979C37.6228 6.71934 37.5541 6.39261 37.421 6.09091C37.2879 5.78922 37.0935 5.51934 36.8504 5.2989C36.6074 5.07846 36.3212 4.91241 36.0105 4.81159C35.6998 4.71077 35.3717 4.67744 35.0474 4.71379C33.5323 4.88535 30.8757 4.89005 28.0869 4.30723C25.2795 3.7197 22.5811 2.59165 20.7018 0.688076Z" fill="#00BE50"/>
<path d="M10.1679 32.2899H11.2043C11.854 32.2899 12.3632 31.7893 12.3632 31.1396V29.6644C14.3131 29.7873 17.1318 29.875 19.3886 29.875C21.6543 29.875 24.4731 29.7873 26.4229 29.6644V31.1396C26.4229 31.7893 26.9235 32.2899 27.5818 32.2899H28.6182C29.2769 32.2899 29.7861 31.7893 29.7861 31.1396V26.0727C29.7861 24.5972 29.4875 23.7628 28.6711 22.7091L27.9333 21.7518C27.6084 20.1714 27.0288 18.5115 26.7216 17.8618C26.2558 16.8693 25.3427 16.2806 24.1748 16.1229C23.5866 16.0525 21.6633 16 19.3886 16C17.1232 16 15.1996 16.0614 14.6113 16.1229C13.4434 16.2634 12.5303 16.8693 12.0649 17.8614C11.7577 18.5115 11.1777 20.1714 10.8528 21.7518L10.1151 22.7091C9.29825 23.7631 9 24.5972 9 26.0727V31.1396C9 31.7893 9.50957 32.2899 10.1679 32.2899ZM12.627 21.023C12.8375 20.0571 13.2591 18.8012 13.5487 18.2916C13.7859 17.8794 14.0407 17.7033 14.515 17.6423C15.182 17.5456 16.6751 17.4928 19.3886 17.4928C22.111 17.4928 23.6038 17.528 24.2715 17.6423C24.7368 17.7123 24.9913 17.8791 25.2374 18.292C25.536 18.7925 25.931 20.0567 26.1592 21.023C26.2386 21.3479 26.1067 21.4708 25.7642 21.4446C24.3067 21.3569 22.5678 21.2602 19.3886 21.2602C16.2187 21.2602 14.4798 21.3569 13.0219 21.4446C12.6794 21.4708 12.5565 21.3479 12.6266 21.023M12.9863 27.6007C12.1522 27.6007 11.5288 26.9682 11.5288 26.1428C11.5288 25.3083 12.1522 24.6852 12.9863 24.6852C13.8203 24.6852 14.4442 25.3083 14.4442 26.1428C14.4442 26.9682 13.8207 27.6003 12.9867 27.6003M25.7995 27.6003C24.965 27.6003 24.3419 26.9678 24.3419 26.1424C24.3419 25.308 24.965 24.6849 25.7995 24.6849C26.6249 24.6849 27.257 25.308 27.257 26.1424C27.257 26.9678 26.6249 27.6003 25.7995 27.6003ZM17.0618 27.196C16.4469 27.196 16.0164 26.7569 16.0164 26.142C16.0164 25.5185 16.4469 25.0884 17.0618 25.0884H21.7247C22.3392 25.0884 22.7697 25.5185 22.7697 26.142C22.7697 26.7565 22.3392 27.196 21.7244 27.196H17.0618Z" fill="white"/>
</svg>
